<svg xmlns="http://www.w3.org/2000/svg" viewBox="0 0 128 128" role="img" aria-labelledby="title desc">
  <title id="title">Splicer logo</title>
  <desc id="desc">Rounded square logo with timeline bars and a splice cut mark.</desc>
  <defs>
    <linearGradient id="bg" x1="20" y1="14" x2="112" y2="114" gradientUnits="userSpaceOnUse">
      <stop offset="0" stop-color="#7a8cff" />
      <stop offset="1" stop-color="#5a36ff" />
    </linearGradient>
    <linearGradient id="shine" x1="34" y1="30" x2="90" y2="95" gradientUnits="userSpaceOnUse">
      <stop offset="0" stop-color="#f7fbff" stop-opacity="1" />
      <stop offset="1" stop-color="#d8e1ff" stop-opacity="0.88" />
    </linearGradient>
  </defs>

  <rect x="8" y="8" width="112" height="112" rx="30" fill="url(#bg)" />
  <path d="M25 39c0-4.4 3.6-8 8-8h62c4.4 0 8 3.6 8 8s-3.6 8-8 8H33c-4.4 0-8-3.6-8-8Zm0 24c0-4.4 3.6-8 8-8h26.5c4.4 0 8 3.6 8 8s-3.6 8-8 8H33c-4.4 0-8-3.6-8-8Zm43.5 0c0-4.4 3.6-8 8-8H95c4.4 0 8 3.6 8 8s-3.6 8-8 8H76.5c-4.4 0-8-3.6-8-8ZM25 87c0-4.4 3.6-8 8-8h62c4.4 0 8 3.6 8 8s-3.6 8-8 8H33c-4.4 0-8-3.6-8-8Z" fill="#f4f7ff" fill-opacity="0.24" />

  <path d="M49 42.5 80.5 74M80.5 42.5 49 74" stroke="url(#shine)" stroke-width="9.5" stroke-linecap="round" />
  <circle cx="45.5" cy="39" r="7" fill="#e7eeff" />
  <circle cx="84" cy="39" r="7" fill="#e7eeff" />
</svg>
